<mxfile host="Electron" agent="Mozilla/5.0 (Windows NT 10.0; Win64; x64) AppleWebKit/537.36 (KHTML, like Gecko) draw.io/26.0.4 Chrome/128.0.6613.186 Electron/32.2.5 Safari/537.36" version="26.0.4">
  <diagram name="Seite-1" id="WTdp1-wcwIpe_19XcLFv">
    <mxGraphModel dx="1434" dy="836" grid="1" gridSize="10" guides="1" tooltips="1" connect="1" arrows="1" fold="1" page="1" pageScale="1" pageWidth="583" pageHeight="827" math="0" shadow="0">
      <root>
        <mxCell id="0" />
        <mxCell id="1" parent="0" />
        <mxCell id="DHFWRvlP0dfVqOlD5bYB-1" value="PPC-based" style="rounded=0;whiteSpace=wrap;html=1;fontFamily=Times New Roman;fontSize=18;fillColor=#f5f5f5;fontColor=#333333;strokeColor=#666666;" vertex="1" parent="1">
          <mxGeometry x="40" y="200" width="230" height="60" as="geometry" />
        </mxCell>
        <mxCell id="DHFWRvlP0dfVqOlD5bYB-2" value="SBDT Key Performance Indicators" style="rounded=0;whiteSpace=wrap;html=1;fontFamily=Times New Roman;fontSize=20;fillColor=#ADADAD;fontColor=#333333;strokeColor=#666666;" vertex="1" parent="1">
          <mxGeometry x="40" y="130" width="480" height="60" as="geometry" />
        </mxCell>
        <mxCell id="DHFWRvlP0dfVqOlD5bYB-3" value="Infrastructure-based" style="rounded=0;whiteSpace=wrap;html=1;fontFamily=Times New Roman;fontSize=18;fillColor=#f5f5f5;fontColor=#333333;strokeColor=#666666;" vertex="1" parent="1">
          <mxGeometry x="290" y="200" width="230" height="60" as="geometry" />
        </mxCell>
        <mxCell id="DHFWRvlP0dfVqOlD5bYB-4" value="Throughput" style="rounded=0;whiteSpace=wrap;html=1;fontFamily=Times New Roman;fontSize=14;" vertex="1" parent="1">
          <mxGeometry x="95" y="270" width="120" height="60" as="geometry" />
        </mxCell>
        <mxCell id="DHFWRvlP0dfVqOlD5bYB-5" value="Ping" style="rounded=0;whiteSpace=wrap;html=1;fontFamily=Times New Roman;fontSize=14;" vertex="1" parent="1">
          <mxGeometry x="345" y="270" width="120" height="60" as="geometry" />
        </mxCell>
        <mxCell id="DHFWRvlP0dfVqOlD5bYB-6" value="Lead Time" style="rounded=0;whiteSpace=wrap;html=1;fontFamily=Times New Roman;fontSize=14;" vertex="1" parent="1">
          <mxGeometry x="95" y="340" width="120" height="60" as="geometry" />
        </mxCell>
        <mxCell id="DHFWRvlP0dfVqOlD5bYB-9" value="Cycle Time" style="rounded=0;whiteSpace=wrap;html=1;fontFamily=Times New Roman;fontSize=14;" vertex="1" parent="1">
          <mxGeometry x="95" y="410" width="120" height="60" as="geometry" />
        </mxCell>
        <mxCell id="DHFWRvlP0dfVqOlD5bYB-10" value="Setup Time" style="rounded=0;whiteSpace=wrap;html=1;fontFamily=Times New Roman;fontSize=14;" vertex="1" parent="1">
          <mxGeometry x="95" y="480" width="120" height="60" as="geometry" />
        </mxCell>
        <mxCell id="DHFWRvlP0dfVqOlD5bYB-12" value="CPU Usage" style="rounded=0;whiteSpace=wrap;html=1;fontFamily=Times New Roman;fontSize=14;" vertex="1" parent="1">
          <mxGeometry x="345" y="340" width="120" height="60" as="geometry" />
        </mxCell>
        <mxCell id="DHFWRvlP0dfVqOlD5bYB-13" value="Memory Usage" style="rounded=0;whiteSpace=wrap;html=1;fontFamily=Times New Roman;fontSize=14;" vertex="1" parent="1">
          <mxGeometry x="345" y="410" width="120" height="60" as="geometry" />
        </mxCell>
        <mxCell id="DHFWRvlP0dfVqOlD5bYB-14" value="Disk Usage" style="rounded=0;whiteSpace=wrap;html=1;fontFamily=Times New Roman;fontSize=14;" vertex="1" parent="1">
          <mxGeometry x="345" y="480" width="120" height="60" as="geometry" />
        </mxCell>
        <mxCell id="DHFWRvlP0dfVqOlD5bYB-15" value="Network Usage" style="rounded=0;whiteSpace=wrap;html=1;fontFamily=Times New Roman;fontSize=14;" vertex="1" parent="1">
          <mxGeometry x="345" y="550" width="120" height="60" as="geometry" />
        </mxCell>
        <mxCell id="DHFWRvlP0dfVqOlD5bYB-16" value="Order Tracking" style="rounded=0;whiteSpace=wrap;html=1;fontFamily=Times New Roman;fontSize=14;" vertex="1" parent="1">
          <mxGeometry x="95" y="550" width="120" height="60" as="geometry" />
        </mxCell>
      </root>
    </mxGraphModel>
  </diagram>
</mxfile>
